<svg xmlns="http://www.w3.org/2000/svg" viewBox="0 0 953 1000" fill="#fff"><path d="M1 329q7-115 79-191h2l2-2q88-76 199-76t191 70q32-28 67-45l2-2h2q56-23 117-23 88-2 161 43t110 124v2l2 4q30 106 10 202t-80 175q-62 88-162 172 0 2-2 2-49 45-107 90-34 25-59 41-33 23-55 23l-6 2-5-2q-28-3-59-29-10-6-21-16t-16-13h-2q-246-188-328-340v-2q-49-94-42-209zm85 10q-6 86 33 162 74 135 303 310h2q6 6 18 16t19 14q8 6 15 10 8-2 14-6 22-14 51-37 58-43 105-88 94-80 151-161 107-142 58-298-27-57-78-88t-113-29q-43 0-86 17-39 22-68 57l-32 43-35-43q-52-65-141-73t-161 53q-49 55-55 141z"/></svg>