<svg xmlns="http://www.w3.org/2000/svg" viewBox="0 0 497.401 497.401"><g fill="#444"><path d="M478.742 154.382H320.714c28.366 21.765 47.111 55.717 47.111 94.307 0 30.63-14.345 56.386-30.933 79.445-28.322 39.41-95.817 168.878-95.817 168.878 2.567.043 5.026.388 7.636.388 137.341 0 248.69-111.348 248.69-248.69-.022-33.412-6.709-65.229-18.659-94.328z"/><path d="M248.172 129.619c54.402-.388 217.628-2.049 217.628-2.049C423.24 51.511 342.069 0 248.69 0 170.819 0 101.361 35.829 55.782 91.848l75.972 134.925c10.268-55.113 58.349-96.744 116.418-97.154z"/><path d="M248.668 367.825c-51.964 0-91.568-35.117-111.974-79.855-20.535-45.018-98.061-171.984-98.061-171.984C14.301 154.425 0 199.832 0 248.69c0 124.744 91.935 227.744 211.696 245.648l77.288-134.019c-12.641 4.615-26.101 7.506-40.316 7.506z"/><circle cx="248.668" cy="248.711" r="80.416"/></g></svg>
